<?xml version="1.0" encoding="utf-8"?>
<!-- Generated by Mocodo 4.1.2 -->
<svg width="400" height="86" viewBox="0 0 400 86" xmlns="http://www.w3.org/2000/svg">
<rect x="0" y="0" width="400" height="86" fill="#f7f7f7" stroke="none" stroke-width="0"/>

<!-- Association POSSEDER -->
<g>
	<line x1="64" y1="43" x2="192" y2="43" stroke="#9970ab" stroke-width="2"/>
	<line x1="328" y1="43" x2="192" y2="43" stroke="#9970ab" stroke-width="2"/>
	<g>
		<path d="M219 9 a14 14 90 0 1 14 14 V34 h-82 V23 a14 14 90 0 1 14 -14" fill="#c2a5cf" stroke="#c2a5cf" stroke-width="0"/>
		<path d="M233 34 v29 a14 14 90 0 1 -14 14 H165 a14 14 90 0 1 -14 -14 V34 H82" fill="#e7d4e8" stroke="#e7d4e8" stroke-width="0"/>
		<rect x="151" y="9" width="82" height="68" fill="none" rx="14" stroke="#9970ab" stroke-width="2"/>
		<line x1="151" y1="34" x2="233" y2="34" stroke="#9970ab" stroke-width="1"/>
		<text x="159" y="26.75" fill="#000000" font-family="Verdana" font-size="12">POSSEDER</text>
		<text x="158" y="51.8" fill="#000000" font-family="Verdana" font-size="12">valeur</text>
		<text x="158" y="68.8" fill="#000000" font-family="Verdana" font-size="12">mois</text>
	</g>
	<text x="124" y="60" fill="#1b7837" font-family="Verdana" font-size="12">0,N</text>
	<text x="238" y="60" fill="#1b7837" font-family="Verdana" font-size="12">1,N</text>
</g>

<!-- Entity CHANTIER -->
<g>
	<g>
		<rect x="9" y="9" width="110" height="25" fill="#a6dba0" stroke="none" stroke-width="0" opacity="1"/>
		<rect x="9" y="34" width="110" height="43" fill="#d9f0d3" stroke="none" stroke-width="0" opacity="1"/>
		<rect x="9" y="9" width="110" height="68" fill="none" stroke="#5aae61" stroke-width="2" opacity="1"/>
		<line x1="9" y1="34" x2="119" y2="34" stroke="#5aae61" stroke-width="1"/>
	</g>
	<text x="32" y="26.75" fill="#000000" font-family="Verdana" font-size="12">CHANTIER</text>
	<text x="14" y="51.8" fill="#000000" font-family="Verdana" font-size="12">code_CHANTIER</text>
	<line x1="14" y1="54" x2="114" y2="54" stroke="#000000" stroke-width="1"/>
	<text x="14" y="68.8" fill="#000000" font-family="Verdana" font-size="12">nom</text>
</g>

<!-- Entity PRESTATION -->
<g>
	<g>
		<rect x="265" y="9" width="126" height="25" fill="#a6dba0" stroke="none" stroke-width="0" opacity="1"/>
		<rect x="265" y="34" width="126" height="43" fill="#d9f0d3" stroke="none" stroke-width="0" opacity="1"/>
		<rect x="265" y="9" width="126" height="68" fill="none" stroke="#5aae61" stroke-width="2" opacity="1"/>
		<line x1="265" y1="34" x2="391" y2="34" stroke="#5aae61" stroke-width="1"/>
	</g>
	<text x="289" y="26.75" fill="#000000" font-family="Verdana" font-size="12">PRESTATION</text>
	<text x="270" y="51.8" fill="#000000" font-family="Verdana" font-size="12">code_PRESTATION</text>
	<line x1="270" y1="54" x2="385" y2="54" stroke="#000000" stroke-width="1"/>
	<text x="270" y="68.8" fill="#000000" font-family="Verdana" font-size="12">nom</text>
</g>
</svg>