<?xml version="1.0" encoding="utf-8"?>
<!-- Generated by Mocodo 4.1.2 -->
<svg width="548" height="120" viewBox="0 0 548 120" xmlns="http://www.w3.org/2000/svg">
<rect x="0" y="0" width="548" height="120" fill="#f7f7f7" stroke="none" stroke-width="0"/>

<!-- Entity WORKSITE -->
<g>
	<g>
		<rect x="41" y="26" width="114" height="25" fill="#a6dba0" stroke="none" stroke-width="0" opacity="1"/>
		<rect x="41" y="51" width="114" height="43" fill="#d9f0d3" stroke="none" stroke-width="0" opacity="1"/>
		<rect x="41" y="26" width="114" height="68" fill="none" stroke="#5aae61" stroke-width="2" opacity="1"/>
		<line x1="41" y1="51" x2="155" y2="51" stroke="#5aae61" stroke-width="1"/>
	</g>
	<text x="65" y="43.75" fill="#000000" font-family="Verdana" font-size="12">WORKSITE</text>
	<text x="46" y="68.8" fill="#000000" font-family="Verdana" font-size="12">code_WORKSITE</text>
	<line x1="46" y1="71" x2="149" y2="71" stroke="#000000" stroke-width="1"/>
	<text x="46" y="85.8" fill="#000000" font-family="Verdana" font-size="12">name</text>
</g>

<!-- Entity POSSESS -->
<g>
	<g>
		<rect x="219" y="9" width="124" height="25" fill="#a6dba0" stroke="none" stroke-width="0" opacity="1"/>
		<rect x="219" y="34" width="124" height="77" fill="#d9f0d3" stroke="none" stroke-width="0" opacity="1"/>
		<rect x="219" y="9" width="124" height="102" fill="none" stroke="#5aae61" stroke-width="2" opacity="1"/>
		<line x1="219" y1="34" x2="343" y2="34" stroke="#5aae61" stroke-width="1"/>
	</g>
	<text x="252" y="26.75" fill="#000000" font-family="Verdana" font-size="12">POSSESS</text>
	<text x="224" y="51.8" fill="#000000" font-family="Verdana" font-size="12">#code_WORKSITE</text>
	<line x1="224" y1="54" x2="337" y2="54" stroke="#000000" stroke-width="1"/>
	<text x="224" y="68.8" fill="#000000" font-family="Verdana" font-size="12">#code_SERVICE</text>
	<line x1="224" y1="71" x2="324" y2="71" stroke="#000000" stroke-width="1"/>
	<text x="224" y="85.8" fill="#000000" font-family="Verdana" font-size="12">value</text>
	<text x="224" y="102.8" fill="#000000" font-family="Verdana" font-size="12">month</text>
</g>

<!-- Entity SERVICE -->
<g>
	<g>
		<rect x="407" y="26" width="100" height="25" fill="#a6dba0" stroke="none" stroke-width="0" opacity="1"/>
		<rect x="407" y="51" width="100" height="43" fill="#d9f0d3" stroke="none" stroke-width="0" opacity="1"/>
		<rect x="407" y="26" width="100" height="68" fill="none" stroke="#5aae61" stroke-width="2" opacity="1"/>
		<line x1="407" y1="51" x2="507" y2="51" stroke="#5aae61" stroke-width="1"/>
	</g>
	<text x="430" y="43.75" fill="#000000" font-family="Verdana" font-size="12">SERVICE</text>
	<text x="412" y="68.8" fill="#000000" font-family="Verdana" font-size="12">code_SERVICE</text>
	<line x1="412" y1="71" x2="502" y2="71" stroke="#000000" stroke-width="1"/>
	<text x="412" y="85.8" fill="#000000" font-family="Verdana" font-size="12">name</text>
</g>

<!-- Link from &quot;code_WORKSITE&quot; (POSSESS) to &quot;code_WORKSITE&quot; (WORKSITE) -->
<path d="M219 47.5 C187 56 197.67 64.5 155 64.5" fill="none" stroke="#9970ab" stroke-width="2"/>
<polygon points="155 64.5 167 58.5 163 64.5 167 70.5" fill="#9970ab" stroke-width="0"/>
<circle cx="219" cy="47.5" r="2" stroke="#9970ab" stroke-width="2" fill="#9970ab"/>

<!-- Link from &quot;code_SERVICE&quot; (POSSESS) to &quot;code_SERVICE&quot; (SERVICE) -->
<path d="M343 64.5 C375 64.5 364.33 64.5 407 64.5" fill="none" stroke="#9970ab" stroke-width="2"/>
<polygon points="407 64.5 395 70.5 399 64.5 395 58.5" fill="#9970ab" stroke-width="0"/>
<circle cx="343" cy="64.5" r="2" stroke="#9970ab" stroke-width="2" fill="#9970ab"/>
</svg>